<svg data-v-423bf9ae="" xmlns="http://www.w3.org/2000/svg" viewBox="0 0 961.3533283456645 60" class="font"><!----><!----><!----><g data-v-423bf9ae="" id="3c3be817-6998-438a-b25b-96a3225dece9" fill="#512b58" transform="matrix(5.639097562403148,0,0,5.639097562403148,-4.34211484948878,-21.879699664304873)"><path d="M0.77 14.35L7.81 14.35L7.81 11.83L6.73 11.83L6.73 13.62L3.15 13.62L3.15 5.25L4.21 5.25L4.21 4.58L0.77 4.58L0.77 5.25L1.83 5.25L1.83 13.68L0.77 13.68ZM12.52 14.52C14.08 14.52 15.05 13.59 15.41 12.60L14.92 12.29C14.53 13.05 13.87 13.57 12.71 13.57C11.40 13.57 10.53 12.60 10.53 11.06L10.53 10.71L15.57 10.71L15.57 10.37C15.57 8.39 14.39 6.96 12.45 6.96C10.56 6.96 9.14 8.50 9.14 10.74C9.14 12.99 10.37 14.52 12.52 14.52ZM10.53 9.84C10.53 8.58 11.19 7.66 12.45 7.66C13.72 7.66 14.25 8.62 14.25 9.88L14.25 10.04L10.53 10.04ZM20.24 13.79C18.84 13.79 18.24 12.81 18.24 11.54L18.24 9.94C18.24 8.67 18.84 7.69 20.24 7.69C21.64 7.69 22.25 8.67 22.25 9.94L22.25 11.54C22.25 12.81 21.64 13.79 20.24 13.79ZM20.24 14.52C22.29 14.52 23.66 13.02 23.66 10.74C23.66 8.46 22.29 6.96 20.24 6.96C18.20 6.96 16.83 8.46 16.83 10.74C16.83 13.02 18.20 14.52 20.24 14.52ZM29.75 14.52C31.43 14.52 32.44 13.69 32.44 12.07L32.44 5.25L33.50 5.25L33.50 4.58L29.78 4.58L29.78 5.25L31.12 5.25L31.12 12.19C31.12 13.33 30.67 13.86 29.75 13.86C29.44 13.86 29.18 13.83 28.99 13.78L28.99 13.73C29.20 13.66 29.44 13.43 29.44 13.03C29.44 12.54 29.15 12.19 28.64 12.19C28.08 12.19 27.75 12.60 27.75 13.15C27.75 13.94 28.42 14.52 29.75 14.52ZM36.50 5.50C37.00 5.50 37.30 5.15 37.30 4.73L37.30 4.65C37.30 4.23 37.00 3.88 36.50 3.88C35.99 3.88 35.70 4.23 35.70 4.65L35.70 4.73C35.70 5.15 35.99 5.50 36.50 5.50ZM34.83 14.35L38.18 14.35L38.18 13.68L37.13 13.68L37.13 6.96L34.83 7.39L34.83 7.90L35.88 8.09L35.88 13.68L34.83 13.68ZM39.37 14.35L42.71 14.35L42.71 13.68L41.66 13.68L41.66 9.20C41.66 8.26 42.49 7.80 43.32 7.80C44.44 7.80 44.97 8.46 44.97 9.77L44.97 13.68L43.92 13.68L43.92 14.35L47.26 14.35L47.26 13.68L46.21 13.68L46.21 9.20C46.21 8.26 47.04 7.80 47.87 7.80C48.99 7.80 49.52 8.46 49.52 9.77L49.52 13.68L48.47 13.68L48.47 14.35L51.81 14.35L51.81 13.68L50.76 13.68L50.76 9.69C50.76 7.88 50.08 6.96 48.30 6.96C47.03 6.96 46.37 7.73 46.07 8.37L46.02 8.37C45.74 7.42 45.01 6.96 43.75 6.96C42.62 6.96 41.92 7.63 41.68 8.22L41.62 8.22L41.62 6.96L39.37 7.39L39.37 7.90L40.42 8.09L40.42 13.68L39.37 13.68ZM56.31 14.52C57.88 14.52 58.84 13.59 59.21 12.60L58.72 12.29C58.32 13.05 57.67 13.57 56.50 13.57C55.19 13.57 54.32 12.60 54.32 11.06L54.32 10.71L59.36 10.71L59.36 10.37C59.36 8.39 58.18 6.96 56.24 6.96C54.35 6.96 52.93 8.50 52.93 10.74C52.93 12.99 54.17 14.52 56.31 14.52ZM54.32 9.84C54.32 8.58 54.98 7.66 56.24 7.66C57.51 7.66 58.04 8.62 58.04 9.88L58.04 10.04L54.32 10.04ZM60.69 14.35L64.04 14.35L64.04 13.68L62.99 13.68L62.99 9.18C62.99 8.25 63.87 7.80 64.68 7.80C65.84 7.80 66.37 8.46 66.37 9.77L66.37 13.68L65.32 13.68L65.32 14.35L68.67 14.35L68.67 13.68L67.62 13.68L67.62 9.67C67.62 7.87 66.92 6.96 65.13 6.96C63.97 6.96 63.22 7.64 63 8.22L62.94 8.22L62.94 6.96L60.69 7.39L60.69 7.90L61.74 8.09L61.74 13.68L60.69 13.68ZM73.16 14.52C74.73 14.52 75.70 13.59 76.06 12.60L75.57 12.29C75.18 13.05 74.52 13.57 73.36 13.57C72.04 13.57 71.18 12.60 71.18 11.06L71.18 10.71L76.22 10.71L76.22 10.37C76.22 8.39 75.04 6.96 73.09 6.96C71.20 6.96 69.79 8.50 69.79 10.74C69.79 12.99 71.02 14.52 73.16 14.52ZM71.18 9.84C71.18 8.58 71.83 7.66 73.09 7.66C74.37 7.66 74.90 8.62 74.90 9.88L74.90 10.04L71.18 10.04ZM77.48 14.35L83.37 14.35L83.37 12.17L82.46 12.17L82.46 13.65L79.09 13.65L83.26 7.63L83.26 7.13L77.59 7.13L77.59 9.31L78.50 9.31L78.50 7.83L81.65 7.83L77.48 13.85ZM91.57 14.52C92.61 14.52 93.48 14.14 94.15 13.50L94.32 13.68C94.75 14.14 95.21 14.35 95.96 14.35L96.96 14.35L96.96 13.68C96.14 13.68 95.73 13.51 95.33 13.08L94.88 12.59C95.35 11.82 95.65 10.84 95.75 9.74L96.88 9.74L96.88 9.04L93.97 9.04L93.97 9.74L94.99 9.74C94.92 10.63 94.74 11.42 94.40 12.07L91.64 9.09C93.00 8.43 94.14 7.52 94.14 6.37C94.14 5.24 93.16 4.41 91.63 4.41C89.98 4.41 88.94 5.29 88.94 6.65C88.94 7.52 89.32 8.23 89.89 8.85L90.16 9.14C88.91 9.80 88.09 10.56 88.09 11.87C88.09 13.55 89.54 14.52 91.57 14.52ZM91.13 8.51C90.61 7.95 90.15 7.36 90.15 6.68L90.15 6.54C90.15 5.75 90.65 5.11 91.57 5.11C92.48 5.11 93.02 5.67 93.02 6.41L93.02 6.59C93.02 7.36 92.44 7.99 91.22 8.62ZM91.66 13.75C90.36 13.75 89.43 13.09 89.43 11.96L89.43 11.72C89.43 10.85 89.66 10.18 90.58 9.60L93.70 13.01C93.20 13.48 92.51 13.75 91.66 13.75ZM100.93 14.35L103.82 14.35L103.82 13.68L102.56 13.68L103.42 11.17L107.25 11.17L108.14 13.68L106.88 13.68L106.88 14.35L110.29 14.35L110.29 13.68L109.55 13.68L106.33 4.58L104.89 4.58L101.67 13.68L100.93 13.68ZM105.31 5.66L105.41 5.66L107.04 10.47L103.63 10.47ZM114.13 14.52C115.77 14.52 116.75 13.58 116.75 12.39C116.75 11.16 116.00 10.49 114.53 10.18L113.72 10.01C112.99 9.86 112.53 9.41 112.53 8.78C112.53 8.04 113.09 7.69 114.04 7.69C115.12 7.69 115.61 8.05 115.61 8.76L115.61 9.31L116.52 9.31L116.52 7.13L115.61 7.13L115.61 7.70L115.56 7.70C115.37 7.25 114.76 6.96 113.88 6.96C112.35 6.96 111.38 7.74 111.38 9.02C111.38 10.23 112.11 10.95 113.53 11.24L114.39 11.42C115.15 11.58 115.57 12.01 115.57 12.63C115.57 13.45 114.95 13.78 113.89 13.78C112.71 13.78 112.27 13.23 112.27 12.45L112.27 12.17L111.36 12.17L111.36 14.35L112.27 14.35L112.27 13.65L112.32 13.65C112.53 14.08 113.25 14.52 114.13 14.52ZM121.03 14.52C122.67 14.52 123.65 13.58 123.65 12.39C123.65 11.16 122.91 10.49 121.44 10.18L120.62 10.01C119.90 9.86 119.43 9.41 119.43 8.78C119.43 8.04 119.99 7.69 120.95 7.69C122.02 7.69 122.51 8.05 122.51 8.76L122.51 9.31L123.42 9.31L123.42 7.13L122.51 7.13L122.51 7.70L122.46 7.70C122.28 7.25 121.66 6.96 120.78 6.96C119.25 6.96 118.29 7.74 118.29 9.02C118.29 10.23 119.01 10.95 120.43 11.24L121.30 11.42C122.05 11.58 122.47 12.01 122.47 12.63C122.47 13.45 121.86 13.78 120.79 13.78C119.62 13.78 119.17 13.23 119.17 12.45L119.17 12.17L118.26 12.17L118.26 14.35L119.17 14.35L119.17 13.65L119.22 13.65C119.43 14.08 120.15 14.52 121.03 14.52ZM128.45 13.79C127.05 13.79 126.45 12.81 126.45 11.54L126.45 9.94C126.45 8.67 127.05 7.69 128.45 7.69C129.85 7.69 130.45 8.67 130.45 9.94L130.45 11.54C130.45 12.81 129.85 13.79 128.45 13.79ZM128.45 14.52C130.49 14.52 131.87 13.02 131.87 10.74C131.87 8.46 130.49 6.96 128.45 6.96C126.41 6.96 125.03 8.46 125.03 10.74C125.03 13.02 126.41 14.52 128.45 14.52ZM136.64 14.52C138.21 14.52 139.12 13.59 139.48 12.60L138.99 12.29C138.60 13.05 138.00 13.57 136.84 13.57C135.49 13.57 134.65 12.57 134.65 11.07L134.65 10.01C134.65 8.67 135.59 7.64 136.89 7.64C137.49 7.64 137.87 7.74 138.10 7.87L138.10 7.91C137.70 8.08 137.47 8.40 137.47 8.82C137.47 9.31 137.77 9.73 138.38 9.73C138.95 9.73 139.31 9.34 139.31 8.72C139.31 7.70 138.32 6.96 136.75 6.96C134.69 6.96 133.27 8.44 133.27 10.74C133.27 12.99 134.50 14.52 136.64 14.52ZM142.41 5.50C142.91 5.50 143.21 5.15 143.21 4.73L143.21 4.65C143.21 4.23 142.91 3.88 142.41 3.88C141.90 3.88 141.61 4.23 141.61 4.65L141.61 4.73C141.61 5.15 141.90 5.50 142.41 5.50ZM140.74 14.35L144.09 14.35L144.09 13.68L143.04 13.68L143.04 6.96L140.74 7.39L140.74 7.90L141.79 8.09L141.79 13.68L140.74 13.68ZM147.46 14.52C148.76 14.52 149.32 13.93 149.60 13.30L149.67 13.30L149.67 13.34C149.67 14.06 150.11 14.52 150.88 14.52C151.33 14.52 151.69 14.39 151.90 14.24L151.90 13.71L150.85 13.71L150.85 9.20C150.85 7.78 149.93 6.96 148.39 6.96C146.62 6.96 145.63 7.77 145.63 8.60C145.63 9.16 145.96 9.45 146.44 9.45C146.94 9.45 147.27 9.16 147.27 8.64C147.27 8.22 147.01 8.01 146.79 7.88L146.79 7.85C147.06 7.71 147.50 7.63 147.94 7.63C149.04 7.63 149.60 8.26 149.60 9.38L149.60 10.42L148.58 10.42C146.15 10.42 145.28 11.16 145.28 12.56C145.28 13.76 146.10 14.52 147.46 14.52ZM147.99 13.71C147.13 13.71 146.61 13.34 146.61 12.64L146.61 12.36C146.61 11.48 147.10 11.02 148.71 11.02L149.60 11.02L149.60 12.35C149.60 13.27 148.88 13.71 147.99 13.71ZM155.19 14.43C155.86 14.43 156.60 14.29 156.93 14.11L156.93 13.62L155.04 13.62L155.04 7.85L156.93 7.85L156.93 7.13L155.04 7.13L155.04 5.25L154.36 5.25L154.01 6.50C153.89 6.92 153.78 7.13 152.96 7.13L152.85 7.13L152.85 7.85L153.79 7.85L153.79 13.03C153.79 14.06 154.13 14.43 155.19 14.43ZM161.34 14.52C162.90 14.52 163.87 13.59 164.23 12.60L163.74 12.29C163.35 13.05 162.69 13.57 161.53 13.57C160.22 13.57 159.35 12.60 159.35 11.06L159.35 10.71L164.39 10.71L164.39 10.37C164.39 8.39 163.21 6.96 161.27 6.96C159.38 6.96 157.96 8.50 157.96 10.74C157.96 12.99 159.19 14.52 161.34 14.52ZM159.35 9.84C159.35 8.58 160.01 7.66 161.27 7.66C162.54 7.66 163.07 8.62 163.07 9.88L163.07 10.04L159.35 10.04ZM168.63 14.52C170.27 14.52 171.25 13.58 171.25 12.39C171.25 11.16 170.51 10.49 169.04 10.18L168.22 10.01C167.50 9.86 167.03 9.41 167.03 8.78C167.03 8.04 167.59 7.69 168.55 7.69C169.62 7.69 170.11 8.05 170.11 8.76L170.11 9.31L171.02 9.31L171.02 7.13L170.11 7.13L170.11 7.70L170.06 7.70C169.88 7.25 169.26 6.96 168.38 6.96C166.85 6.96 165.89 7.74 165.89 9.02C165.89 10.23 166.61 10.95 168.03 11.24L168.90 11.42C169.65 11.58 170.07 12.01 170.07 12.63C170.07 13.45 169.46 13.78 168.39 13.78C167.22 13.78 166.77 13.23 166.77 12.45L166.77 12.17L165.86 12.17L165.86 14.35L166.77 14.35L166.77 13.65L166.82 13.65C167.03 14.08 167.75 14.52 168.63 14.52Z"></path></g><!----><!----></svg>